<?xml version="1.0" standalone="no"?>
<!DOCTYPE svg PUBLIC "-//W3C//DTD SVG 20010904//EN"
 "http://www.w3.org/TR/2001/REC-SVG-20010904/DTD/svg10.dtd">
<svg version="1.0" xmlns="http://www.w3.org/2000/svg"
 width="500.000000pt" height="500.000000pt" viewBox="0 0 500.000000 500.000000"
 preserveAspectRatio="xMidYMid meet">
<metadata>
Created by potrace 1.14, written by Peter Selinger 2001-2017
</metadata>
<g transform="translate(0.000000,500.000000) scale(0.100000,-0.100000)"
fill="#000000" stroke="none">
<path d="M2733 4294 c-24 -9 -57 -32 -76 -54 l-32 -38 -35 15 c-51 22 -149 19
-205 -6 -142 -63 -201 -187 -143 -303 31 -63 101 -118 151 -118 l28 0 -21 -30
c-48 -67 -99 -208 -115 -315 -10 -67 -15 -76 -38 -73 -12 2 -22 10 -22 18 0 8
6 14 13 12 8 -1 11 2 7 8 -10 17 -24 12 -41 -16 -16 -23 -16 -28 -1 -58 9 -19
29 -40 46 -47 17 -8 31 -17 31 -21 0 -5 0 -10 0 -13 1 -24 57 -125 85 -152 19
-19 35 -36 35 -38 0 -1 -33 -13 -72 -25 -40 -11 -106 -37 -147 -56 -81 -38
-80 -39 -117 30 -33 60 -25 109 36 210 77 129 108 262 75 325 -14 27 -201 248
-334 393 -19 21 -40 46 -47 57 -44 63 -213 60 -363 -6 -164 -72 -297 -215
-351 -378 -28 -87 -38 -165 -26 -203 17 -49 383 -462 426 -480 46 -19 184 -11
264 16 98 33 177 16 225 -49 l21 -28 -69 -68 c-113 -113 -166 -210 -201 -372
l-19 -85 33 -31 c28 -26 33 -38 35 -85 2 -68 26 -109 71 -125 46 -16 111 2
164 47 35 28 161 180 208 249 15 23 15 19 2 -51 -8 -41 -19 -102 -24 -135 -5
-33 -12 -71 -15 -85 -3 -14 -14 -86 -26 -160 -22 -145 -27 -162 -50 -165 -32
-5 -127 -17 -164 -21 -142 -18 -403 -76 -580 -129 -176 -53 -377 -128 -383
-143 -2 -7 4 -32 13 -55 10 -23 26 -60 36 -82 9 -22 66 -161 127 -310 112
-274 151 -367 156 -372 2 -2 32 8 67 21 136 51 352 118 422 131 12 3 42 9 67
15 25 5 56 12 70 14 14 2 52 9 85 14 266 46 658 51 933 12 128 -18 171 -26
302 -55 116 -25 263 -70 393 -119 55 -21 100 -36 102 -34 13 15 336 820 331
825 -7 8 -24 14 -216 83 -128 46 -426 129 -521 145 -19 3 -47 8 -64 11 -16 3
-63 11 -103 18 -64 12 -76 17 -107 52 -19 21 -32 46 -30 54 8 27 9 75 2 95 -6
16 0 24 30 40 46 24 157 112 239 188 41 38 72 79 95 124 30 61 34 76 33 148 0
68 -4 87 -27 127 -23 40 -25 51 -15 72 9 22 8 29 -8 47 -48 53 -293 185 -512
276 -48 20 -100 49 -120 69 -34 33 -34 35 -28 91 14 122 33 195 63 241 13 21
16 22 31 9 33 -28 60 -27 92 3 35 33 38 67 9 104 -21 27 -19 36 13 72 19 21
19 21 56 3 84 -44 194 -3 234 87 46 106 25 227 -54 307 -26 26 -54 47 -63 47
-8 0 -15 3 -16 8 -10 113 -68 206 -157 248 -50 23 -147 27 -199 8z m74 -24
c-53 -9 -112 -48 -122 -81 -4 -11 -9 -18 -12 -16 -2 3 2 19 11 35 19 36 88 72
136 71 31 -1 30 -2 -13 -9z m-1047 -270 c16 -12 30 -24 30 -28 0 -4 17 -25 38
-47 20 -22 66 -74 102 -115 36 -41 67 -77 70 -80 42 -41 154 -179 162 -199 21
-56 -19 -201 -86 -305 -54 -85 -66 -159 -34 -221 10 -18 133 -170 165 -203 18
-18 17 -20 -12 -14 -14 2 -36 -3 -50 -12 -13 -9 -26 -16 -27 -16 -2 0 -39 42
-82 94 -61 74 -89 99 -127 115 -59 26 -87 26 -169 0 -85 -26 -209 -36 -249
-19 -19 7 -96 87 -198 204 -92 105 -170 193 -173 196 -52 47 -61 102 -35 205
59 232 252 415 484 459 90 18 153 13 191 -14z m593 -61 c-5 -31 -1 -47 16 -72
l22 -32 -25 28 c-25 27 -33 67 -20 101 10 27 12 18 7 -25z m24 9 c-3 -8 -6 -5
-6 6 -1 11 2 17 5 13 3 -3 4 -12 1 -19z m3 -42 c0 -22 38 -49 60 -43 11 3 18
1 14 -4 -9 -16 -43 -10 -63 12 -20 22 -36 63 -20 53 5 -3 9 -11 9 -18z m313
-132 c52 -34 67 -50 62 -62 -17 -44 -17 -109 0 -147 10 -22 20 -51 22 -65 6
-35 9 -36 44 -6 41 35 80 32 93 -6 13 -38 -14 -78 -55 -78 -21 0 -32 6 -38 21
-7 22 -8 22 -33 -6 -28 -30 -63 -130 -73 -210 -4 -27 -10 -109 -14 -181 -9
-150 -25 -189 -88 -219 -33 -16 -37 -16 -45 -1 -11 19 -54 22 -61 4 -7 -20
-56 30 -66 66 -12 44 -4 106 15 127 13 14 30 18 74 18 39 -1 69 5 97 19 45 23
57 37 68 72 l7 25 -21 -27 c-36 -45 -83 -68 -140 -68 -112 0 -197 71 -235 196
-6 18 -2 22 24 26 17 3 33 1 36 -4 10 -16 48 -26 60 -17 8 6 25 2 49 -12 86
-51 195 2 195 94 0 58 -63 100 -98 65 -17 -17 -15 -33 3 -18 32 27 50 -33 19
-64 -26 -27 -52 -2 -96 97 -7 15 -16 27 -21 27 -4 0 -5 -5 -2 -10 10 -17 -15
-40 -42 -40 -37 0 -85 28 -81 48 4 18 28 20 63 6 17 -7 18 -6 7 8 -10 12 -8
25 12 69 13 30 27 65 31 79 11 40 -10 11 -29 -40 -26 -68 -44 -90 -71 -90 -18
0 -26 -7 -31 -25 -7 -28 -34 -34 -34 -7 0 42 68 246 70 208 0 -5 7 -2 16 5 14
11 19 10 35 -10 14 -17 19 -19 19 -8 0 16 -26 47 -39 47 -4 0 -13 -6 -20 -12
-21 -19 -7 16 30 77 30 50 31 51 82 52 29 1 63 6 77 12 41 16 52 13 123 -35z
m436 -119 c-29 -30 -90 -39 -116 -19 -17 14 -17 15 2 6 35 -16 100 0 116 29 6
11 13 18 17 15 3 -4 -5 -18 -19 -31z m-707 -387 c-5 -5 -20 -7 -33 -3 l-23 8
24 19 c22 17 24 18 33 3 6 -11 5 -21 -1 -27z m-158 -375 c3 -56 2 -104 -3
-107 -14 -9 -42 72 -48 134 -5 51 -4 57 18 67 13 6 25 10 25 9 1 0 4 -47 8
-103z m664 62 c3 -2 -9 -26 -26 -52 -36 -57 -59 -128 -67 -203 -4 -30 -8 -56
-9 -57 -6 -6 -45 75 -49 103 -6 37 21 118 60 180 25 40 31 45 57 39 16 -3 32
-7 34 -10z m163 -76 l41 -20 -37 -37 c-44 -43 -118 -153 -146 -218 l-20 -45
-29 23 c-16 13 -29 33 -29 45 -2 49 138 273 170 273 6 0 28 -9 50 -21z m-704
-37 c13 -15 23 -30 23 -33 0 -3 16 -14 35 -25 53 -28 30 -57 -28 -35 -22 9
-27 17 -27 45 0 18 -7 39 -15 46 -16 13 -75 5 -75 -11 0 -6 -4 -7 -10 -4 -5 3
-10 19 -10 35 0 28 0 28 43 19 26 -6 50 -20 64 -37z m-13 -30 c11 -34 -11 -90
-51 -130 -7 -7 -13 -19 -13 -25 1 -13 59 53 60 66 0 5 5 5 10 2 17 -11 11 -71
-11 -99 -11 -14 -16 -26 -10 -26 5 0 17 10 25 22 14 20 16 20 22 4 19 -48 -39
-104 -108 -105 -32 -1 -39 -6 -53 -33 -23 -48 -136 -203 -199 -274 -54 -60
-124 -104 -166 -104 -36 0 -77 28 -85 57 -12 42 -6 73 22 123 31 55 76 98 220
214 l110 89 -18 35 c-10 19 -17 45 -14 56 2 12 4 26 4 32 2 21 43 54 68 54 15
0 34 -7 44 -16 15 -14 19 -12 39 20 12 20 29 40 38 46 27 15 60 12 66 -8z
m389 -14 c-3 -18 -9 -36 -12 -41 -13 -14 -148 -35 -165 -25 -20 11 -21 32 -2
25 23 -9 85 12 129 44 51 37 58 36 50 -3z m532 -37 c3 -6 -12 -18 -32 -27 -57
-27 -165 -140 -197 -206 l-28 -58 -29 21 c-16 11 -29 23 -29 25 0 3 15 28 34
57 44 69 109 141 169 188 47 37 50 38 77 24 16 -8 31 -19 35 -24z m-1294 -20
c52 -40 119 -120 119 -141 0 -8 -10 -21 -21 -28 -20 -13 -26 -10 -69 35 -27
26 -71 62 -99 78 -28 17 -51 33 -51 37 0 3 12 20 26 37 28 34 28 34 95 -18z
m1354 -107 c43 -43 69 -120 62 -185 -15 -135 -113 -246 -390 -441 -15 -11 -16
-17 -6 -46 8 -25 8 -39 -1 -62 -12 -29 -77 -96 -116 -118 -15 -10 -16 -13 -5
-21 21 -14 5 -41 -23 -41 -32 0 -60 40 -51 72 4 13 23 47 42 76 20 29 33 55
30 58 -7 8 -87 -114 -87 -133 0 -16 -12 -17 -28 -1 -21 21 -14 81 14 121 14
21 24 41 21 43 -7 8 -53 -57 -65 -91 l-10 -30 -12 30 c-14 36 -8 82 19 138 25
52 153 199 291 336 58 57 90 94 73 82 -37 -25 -39 -24 -19 24 36 85 166 222
211 222 10 0 32 -15 50 -33z m-437 -90 c113 -98 117 -103 117 -141 0 -37 -8
-48 -107 -153 -60 -63 -108 -107 -109 -99 -1 8 -2 25 -4 39 -2 29 -12 163 -20
295 -3 50 -8 107 -10 128 -2 22 0 37 5 35 6 -2 63 -49 128 -104z m-155 -14
c-10 -11 -36 -14 -101 -14 -156 0 -184 5 -213 37 -17 18 -25 36 -22 48 4 15 9
17 19 8 7 -6 23 -8 36 -3 45 14 79 11 91 -8 14 -22 47 -24 47 -3 0 11 12 15
48 16 26 1 58 4 72 8 23 7 25 4 30 -33 4 -26 1 -46 -7 -56z m-879 40 c32 -11
74 -29 93 -41 l35 -22 -25 -25 -25 -24 -53 26 c-30 14 -74 28 -99 31 -24 3
-45 7 -46 8 -1 1 4 17 11 35 17 38 30 39 109 12z m636 -135 c56 -66 112 -131
123 -145 12 -14 47 -54 77 -90 30 -35 61 -71 68 -78 13 -15 13 -15 -32 -68
l-18 -23 -41 47 c-44 52 -146 169 -162 186 -62 67 -207 237 -204 239 2 1 21
11 42 21 20 11 37 24 37 29 0 6 2 8 4 6 2 -2 49 -58 106 -124z m-207 10 c34
-10 61 -28 92 -62 61 -66 59 -73 -17 -57 -35 7 -76 17 -93 23 -64 19 -63 18
-52 66 6 25 13 45 16 45 3 0 28 -7 54 -15z m-441 -59 c-16 -17 -44 -51 -61
-76 l-32 -45 5 43 c12 98 33 124 94 113 l23 -4 -29 -31z m912 -30 c1 -53 5
-50 -77 -59 -35 -4 -41 -1 -87 53 l-49 57 106 -1 106 -1 1 -49z m-409 -136
c33 -5 85 -12 115 -16 30 -4 60 -7 67 -8 9 -2 83 -82 83 -91 0 -5 -195 2 -227
9 -15 3 -46 8 -67 11 -22 3 -64 12 -93 21 l-54 16 6 41 c4 23 9 45 11 48 2 4
25 1 51 -7 26 -8 74 -19 108 -24z m425 -58 c0 -23 0 -23 -24 5 -22 25 -22 29
-8 34 20 7 32 -7 32 -39z m-537 -142 c93 -30 228 -48 344 -46 l103 1 -4 -44
c-4 -47 7 -91 27 -103 7 -4 -35 -6 -93 -5 -58 2 -105 7 -106 13 0 5 -3 35 -8
67 -6 43 -11 57 -24 58 -9 0 -26 2 -37 4 -11 2 -36 6 -55 9 -32 5 -33 5 -12
-6 22 -11 24 -16 18 -67 -3 -31 -5 -61 -6 -66 0 -7 -30 -12 -72 -13 -40 -1
-101 -5 -135 -8 l-63 -6 5 28 c2 16 10 63 16 104 10 66 22 100 36 100 2 0 32
-9 66 -20z m236 -132 c13 -57 8 -66 -37 -63 -24 1 -27 5 -27 41 0 50 11 74 35
74 14 0 21 -12 29 -52z m610 -144 c50 -58 91 -114 91 -124 0 -24 -26 -50 -49
-50 -17 0 -92 79 -171 178 l-34 42 35 30 c19 16 35 29 36 30 0 0 42 -48 92
-106z m-338 37 c11 -12 24 -21 29 -21 6 0 10 -4 10 -9 0 -4 -105 -8 -232 -7
-211 1 -386 -6 -493 -20 -253 -32 -467 -75 -675 -134 -130 -36 -340 -111 -340
-121 0 -4 53 -137 118 -295 65 -159 127 -311 137 -337 12 -31 23 -46 31 -43
128 49 425 134 524 150 53 9 93 16 110 21 8 2 44 7 80 11 36 3 67 8 70 9 14 8
232 19 385 19 235 1 400 -14 615 -55 150 -29 396 -96 475 -129 43 -18 85 -28
89 -22 12 20 277 674 274 677 -7 8 -308 107 -393 130 -108 30 -294 71 -355 80
-34 4 -52 14 -72 37 -15 18 -26 33 -25 35 3 2 189 -29 242 -41 258 -57 675
-192 675 -218 0 -6 -32 -87 -71 -182 -38 -94 -95 -232 -125 -306 -31 -74 -61
-148 -68 -165 -7 -16 -22 -51 -32 -77 -18 -46 -38 -59 -59 -39 -16 13 -314
108 -430 136 -56 13 -207 42 -270 50 -22 4 -47 8 -55 10 -75 19 -559 28 -715
12 -294 -29 -536 -85 -818 -188 -48 -17 -90 -30 -92 -27 -3 2 -63 148 -135
324 -72 175 -135 328 -140 339 -5 11 -18 42 -29 68 l-20 48 55 25 c79 35 304
109 437 143 271 70 539 113 796 127 58 4 107 7 108 8 1 1 84 1 184 0 169 -2
182 -4 200 -23z m177 -29 c20 -27 20 -28 1 -28 -10 0 -19 6 -19 12 0 7 -3 19
-6 28 -10 25 3 19 24 -12z m-601 -228 c3 -46 1 -52 -17 -57 -20 -5 -21 -10
-17 -93 4 -76 8 -90 26 -102 16 -11 21 -25 21 -61 l0 -47 -37 -2 c-21 -1 -68
-5 -104 -8 l-67 -5 -4 48 c-3 37 0 51 14 61 14 11 16 23 11 90 -6 82 -16 112
-37 112 -12 0 -32 87 -22 97 2 3 35 7 73 10 37 3 69 6 70 7 1 0 21 1 44 1 l43
0 3 -51z m370 31 c69 -35 94 -86 89 -182 -4 -77 -22 -128 -57 -160 -45 -41
-85 -50 -229 -48 l-135 1 -6 48 c-4 42 -3 50 13 54 16 4 18 16 18 99 0 85 -2
95 -19 100 -13 3 -20 16 -23 42 -7 74 -13 71 151 71 138 0 150 -2 198 -25z
m-622 -47 c6 -41 4 -53 -9 -60 -13 -7 -15 -19 -9 -71 23 -194 -8 -254 -134
-264 -109 -8 -148 32 -179 182 -17 85 -28 107 -48 99 -14 -5 -40 86 -28 97 7
7 175 39 203 39 23 0 33 -90 12 -105 -9 -7 -12 -21 -9 -39 3 -16 8 -50 12 -75
9 -64 29 -94 57 -85 29 9 38 24 32 54 -2 14 -7 50 -11 80 -6 55 -19 84 -34 75
-8 -5 -20 43 -20 80 0 20 7 24 58 32 106 16 99 19 107 -39z m1069 9 c85 -47
114 -167 66 -275 -38 -85 -87 -121 -173 -126 -85 -5 -158 31 -198 99 -30 51
-34 170 -7 226 24 51 80 97 125 104 21 4 42 8 48 9 22 6 100 -15 139 -37z
m249 -26 c12 -12 -80 -61 -114 -61 -36 0 -36 9 -1 49 24 28 31 31 67 26 22 -3
44 -10 48 -14z m-1788 -85 c9 -38 13 -72 8 -77 -4 -4 -21 -10 -37 -13 -23 -4
-35 0 -52 19 -35 38 -74 32 -92 -15 -7 -18 -5 -45 7 -92 23 -92 57 -126 100
-99 18 12 5 51 -18 51 -13 0 -22 12 -29 42 -6 23 -9 44 -7 46 4 4 189 52 191
49 0 -1 6 -21 11 -45 9 -35 8 -44 -5 -51 -15 -9 -14 -36 3 -117 7 -30 5 -32
-27 -36 -18 -3 -36 -1 -39 4 -4 5 -18 -2 -31 -15 -48 -48 -150 -58 -208 -20
-89 58 -138 210 -98 304 27 63 108 109 184 104 21 -1 42 2 45 7 5 8 69 28 75
24 1 -1 9 -32 19 -70z m1969 20 c17 -7 40 -21 50 -31 13 -13 20 -15 25 -7 6 9
15 9 42 1 19 -7 35 -13 36 -14 4 -2 -28 -107 -38 -127 -13 -23 -79 -3 -79 24
0 11 -13 33 -30 49 -25 25 -33 28 -50 19 -34 -18 -33 -19 71 -99 90 -70 59
-215 -51 -234 -37 -7 -117 17 -144 42 -16 15 -25 18 -28 10 -3 -9 -12 -9 -40
0 l-36 12 16 62 c18 75 22 81 59 73 21 -5 34 -18 48 -49 20 -42 55 -61 76 -40
16 16 1 36 -47 68 -62 41 -86 76 -86 129 -2 107 93 159 206 112z"/>
<path d="M1605 3855 c0 -25 5 -45 10 -45 6 0 10 20 11 45 0 26 -4 45 -10 45
-6 0 -11 -20 -11 -45z"/>
<path d="M1492 3882 c-17 -3 -22 -8 -17 -20 3 -9 9 -29 12 -44 5 -28 14 -34
26 -21 4 3 2 12 -4 20 -9 10 -8 13 4 13 8 0 18 -7 21 -16 3 -8 10 -12 16 -9 6
4 5 11 -4 20 -8 8 -12 23 -9 33 5 22 -10 30 -45 24z m28 -27 c-7 -8 -14 -15
-15 -15 -2 0 -5 7 -9 15 -4 10 1 15 16 15 17 0 18 -2 8 -15z"/>
<path d="M1696 3850 c-20 -31 -23 -40 -11 -40 8 0 15 4 15 10 0 5 7 7 15 4 8
-3 13 -11 12 -16 -1 -6 3 -12 10 -15 13 -5 9 75 -5 89 -5 5 -21 -9 -36 -32z
m34 -6 c0 -8 -5 -12 -10 -9 -6 4 -8 11 -5 16 9 14 15 11 15 -7z"/>
<path d="M1372 3824 l-22 -15 23 -32 c12 -18 23 -34 24 -36 1 -2 14 4 28 13
14 9 23 21 19 27 -3 6 -11 3 -18 -7 -14 -19 -33 -3 -20 18 5 8 2 9 -9 5 -11
-4 -17 -1 -17 8 0 8 9 15 21 15 11 0 17 5 14 10 -8 14 -17 13 -43 -6z"/>
<path d="M1277 3737 c-10 -16 -13 -28 -7 -32 6 -3 10 1 10 9 0 9 5 16 10 16 8
0 14 -14 8 -22 -1 -2 4 -14 12 -27 l13 -25 18 23 c21 26 24 41 9 41 -5 0 -9
-5 -7 -11 1 -6 -4 -14 -10 -16 -8 -3 -13 3 -13 14 0 11 -6 27 -13 37 -13 17
-14 17 -30 -7z"/>
<path d="M1439 3666 c-9 -20 0 -57 54 -222 l65 -199 -24 -24 c-35 -35 -32 -82
6 -115 27 -22 38 -25 98 -22 153 8 296 107 372 258 51 103 49 169 -6 198 -21
12 -28 11 -54 -8 l-30 -22 -222 90 c-123 49 -229 90 -236 90 -7 0 -17 -11 -23
-24z m141 -49 c51 -20 86 -39 86 -47 1 -8 2 -24 3 -36 0 -12 15 -35 31 -53 41
-43 92 -43 138 -1 25 23 39 29 58 24 l24 -6 -22 -40 c-23 -40 -124 -148 -140
-148 -4 0 -8 4 -8 9 0 10 -23 20 -58 27 -26 5 -69 -35 -74 -69 -4 -24 -23 -34
-31 -15 -3 7 -14 36 -25 63 l-20 51 33 -4 c26 -3 36 2 54 23 31 40 28 87 -8
123 -19 18 -39 28 -53 27 -13 -1 -29 -3 -36 -4 -7 0 -16 -11 -21 -23 -7 -19
-11 -12 -29 45 -12 36 -22 71 -22 77 0 17 30 11 120 -23z m258 -102 c3 -3 -3
-12 -14 -20 -22 -17 -67 -19 -94 -5 -18 10 -35 54 -25 70 5 7 119 -31 133 -45z
m175 -6 c9 -12 13 -34 10 -57 -7 -49 -42 -142 -54 -142 -5 0 -9 -6 -9 -13 0
-38 -166 -158 -237 -171 -110 -21 -174 -11 -181 27 -7 36 24 63 93 82 106 28
194 96 268 205 62 93 84 107 110 69z m-413 -7 c40 -32 23 -102 -24 -102 -55 1
-79 61 -43 108 14 17 41 15 67 -6z m119 -213 c-21 -16 -38 -21 -66 -18 -13 1
-2 32 15 45 11 8 24 9 45 1 l30 -10 -24 -18z"/>
<path d="M1958 3372 c-25 -44 -79 -104 -138 -151 -29 -24 -12 -27 29 -6 44 22
148 169 139 196 -2 5 -15 -12 -30 -39z"/>
<path d="M1750 3174 c0 -8 5 -12 10 -9 6 3 10 10 10 16 0 5 -4 9 -10 9 -5 0
-10 -7 -10 -16z"/>
<path d="M1212 3626 c-10 -23 -7 -36 9 -36 5 0 6 7 3 15 -10 25 12 17 26 -10
16 -30 26 -31 40 -6 13 25 13 41 -1 41 -5 0 -8 -4 -5 -8 2 -4 1 -14 -3 -21 -6
-10 -13 -5 -27 18 -22 37 -27 38 -42 7z"/>
<path d="M1180 3513 c0 -8 4 -11 10 -8 5 3 26 2 45 -4 30 -8 35 -7 35 7 0 13
-10 17 -45 18 -33 1 -45 -2 -45 -13z"/>
<path d="M1195 3436 c-25 -18 -13 -71 13 -58 9 5 27 8 40 7 16 -1 22 3 21 19
0 12 -3 16 -5 9 -3 -7 -12 -9 -20 -6 -7 3 -12 9 -9 13 3 4 -1 13 -8 19 -10 8
-18 7 -32 -3z m25 -21 c0 -8 -4 -15 -9 -15 -13 0 -22 16 -14 24 11 11 23 6 23
-9z"/>
<path d="M2590 3750 c-11 -8 -9 -9 11 -6 31 5 69 -18 69 -40 0 -8 4 -13 10 -9
5 3 6 13 3 23 -13 38 -60 54 -93 32z"/>
<path d="M2420 3720 c20 -13 33 -13 25 0 -3 6 -14 10 -23 10 -15 0 -15 -2 -2
-10z"/>
<path d="M2555 3645 c-14 -13 -25 -31 -25 -40 0 -15 1 -15 16 0 10 10 26 14
38 11 20 -5 20 -5 2 9 -18 14 -18 15 -1 21 24 10 47 -6 67 -47 l18 -34 0 28
c0 33 -40 77 -70 77 -11 0 -32 -11 -45 -25z"/>
<path d="M2839 3483 c-13 -16 -12 -17 3 -5 12 10 18 10 23 1 4 -6 1 -15 -6
-20 -11 -7 -9 -9 6 -9 17 0 17 -2 5 -10 -11 -7 -11 -10 -2 -10 15 0 32 39 25
58 -7 18 -38 15 -54 -5z"/>
<path d="M2350 3243 c0 -29 51 -43 80 -22 12 8 9 9 -11 5 -15 -3 -34 1 -47 10
-12 8 -22 11 -22 7z"/>
<path d="M2559 1477 c-1 -1 -2 -48 -4 -104 l-3 -103 29 0 c35 0 55 28 64 87 6
46 -15 112 -37 114 -7 0 -21 2 -30 4 -10 2 -18 3 -19 2z"/>
<path d="M3022 1437 c-16 -19 -31 -95 -32 -154 0 -42 4 -54 19 -63 42 -22 62
9 81 124 11 71 0 106 -34 106 -13 0 -28 -6 -34 -13z"/>
</g>
</svg>
